<svg version="1.1" xmlns="http://www.w3.org/2000/svg" xmlns:xlink="http://www.w3.org/1999/xlink" class="chart" viewBox="0 0 600 400" role="img"><style type="text/css"><![CDATA[
  text {fill: black}
  line {stroke: black}
]]></style>
<text x="330.0" y="20" text-anchor="middle" class="exc-title">Game Starts by Hour</text><g transform="translate(70,40)"><g transform="translate(0, 290)" fill="none" font-size="10" text-anchor="middle"><path class="exc-domain" stroke="#000" d="M0.5, 6V0.5H520.5V6"></path><g class="exc-tick" opacity="1" transform="translate(11.333333333333334,0)"><line y2="6"></line><text y="9" dy="-0.1em" dx="-0.9em" text-anchor="end" transform="rotate(-45)">0</text></g><g class="exc-tick" opacity="1" transform="translate(33.0,0)"><line y2="6"></line><text y="9" dy="-0.1em" dx="-0.9em" text-anchor="end" transform="rotate(-45)">1</text></g><g class="exc-tick" opacity="1" transform="translate(54.66666666666667,0)"><line y2="6"></line><text y="9" dy="-0.1em" dx="-0.9em" text-anchor="end" transform="rotate(-45)">2</text></g><g class="exc-tick" opacity="1" transform="translate(76.33333333333333,0)"><line y2="6"></line><text y="9" dy="-0.1em" dx="-0.9em" text-anchor="end" transform="rotate(-45)">3</text></g><g class="exc-tick" opacity="1" transform="translate(98.0,0)"><line y2="6"></line><text y="9" dy="-0.1em" dx="-0.9em" text-anchor="end" transform="rotate(-45)">4</text></g><g class="exc-tick" opacity="1" transform="translate(119.66666666666667,0)"><line y2="6"></line><text y="9" dy="-0.1em" dx="-0.9em" text-anchor="end" transform="rotate(-45)">5</text></g><g class="exc-tick" opacity="1" transform="translate(141.33333333333334,0)"><line y2="6"></line><text y="9" dy="-0.1em" dx="-0.9em" text-anchor="end" transform="rotate(-45)">6</text></g><g class="exc-tick" opacity="1" transform="translate(163.00000000000003,0)"><line y2="6"></line><text y="9" dy="-0.1em" dx="-0.9em" text-anchor="end" transform="rotate(-45)">7</text></g><g class="exc-tick" opacity="1" transform="translate(184.66666666666669,0)"><line y2="6"></line><text y="9" dy="-0.1em" dx="-0.9em" text-anchor="end" transform="rotate(-45)">8</text></g><g class="exc-tick" opacity="1" transform="translate(206.33333333333334,0)"><line y2="6"></line><text y="9" dy="-0.1em" dx="-0.9em" text-anchor="end" transform="rotate(-45)">9</text></g><g class="exc-tick" opacity="1" transform="translate(228.00000000000003,0)"><line y2="6"></line><text y="9" dy="-0.1em" dx="-0.9em" text-anchor="end" transform="rotate(-45)">10</text></g><g class="exc-tick" opacity="1" transform="translate(249.66666666666669,0)"><line y2="6"></line><text y="9" dy="-0.1em" dx="-0.9em" text-anchor="end" transform="rotate(-45)">11</text></g><g class="exc-tick" opacity="1" transform="translate(271.3333333333333,0)"><line y2="6"></line><text y="9" dy="-0.1em" dx="-0.9em" text-anchor="end" transform="rotate(-45)">12</text></g><g class="exc-tick" opacity="1" transform="translate(293.0,0)"><line y2="6"></line><text y="9" dy="-0.1em" dx="-0.9em" text-anchor="end" transform="rotate(-45)">13</text></g><g class="exc-tick" opacity="1" transform="translate(314.6666666666667,0)"><line y2="6"></line><text y="9" dy="-0.1em" dx="-0.9em" text-anchor="end" transform="rotate(-45)">14</text></g><g class="exc-tick" opacity="1" transform="translate(336.3333333333333,0)"><line y2="6"></line><text y="9" dy="-0.1em" dx="-0.9em" text-anchor="end" transform="rotate(-45)">15</text></g><g class="exc-tick" opacity="1" transform="translate(358.0,0)"><line y2="6"></line><text y="9" dy="-0.1em" dx="-0.9em" text-anchor="end" transform="rotate(-45)">16</text></g><g class="exc-tick" opacity="1" transform="translate(379.6666666666667,0)"><line y2="6"></line><text y="9" dy="-0.1em" dx="-0.9em" text-anchor="end" transform="rotate(-45)">17</text></g><g class="exc-tick" opacity="1" transform="translate(401.3333333333333,0)"><line y2="6"></line><text y="9" dy="-0.1em" dx="-0.9em" text-anchor="end" transform="rotate(-45)">18</text></g><g class="exc-tick" opacity="1" transform="translate(423.0,0)"><line y2="6"></line><text y="9" dy="-0.1em" dx="-0.9em" text-anchor="end" transform="rotate(-45)">19</text></g><g class="exc-tick" opacity="1" transform="translate(444.6666666666667,0)"><line y2="6"></line><text y="9" dy="-0.1em" dx="-0.9em" text-anchor="end" transform="rotate(-45)">20</text></g><g class="exc-tick" opacity="1" transform="translate(466.3333333333333,0)"><line y2="6"></line><text y="9" dy="-0.1em" dx="-0.9em" text-anchor="end" transform="rotate(-45)">21</text></g><g class="exc-tick" opacity="1" transform="translate(488.0,0)"><line y2="6"></line><text y="9" dy="-0.1em" dx="-0.9em" text-anchor="end" transform="rotate(-45)">22</text></g><g class="exc-tick" opacity="1" transform="translate(509.6666666666667,0)"><line y2="6"></line><text y="9" dy="-0.1em" dx="-0.9em" text-anchor="end" transform="rotate(-45)">23</text></g></g><g   fill="none" font-size="10" text-anchor="end"><path class="exc-domain" stroke="#000" d="M-6,290.5H0.5V0.5H-6"></path><g class="exc-tick" opacity="1" transform="translate(0, 290.5)"><line x2="-6"></line><text x="-9" dy="0.32em">0.0</text></g><g class="exc-tick" opacity="1" transform="translate(0, 249.07142857142858)"><line x2="-6"></line><text x="-9" dy="0.32em">4.0</text></g><g class="exc-tick" opacity="1" transform="translate(0, 207.64285714285717)"><line x2="-6"></line><text x="-9" dy="0.32em">8.0</text></g><g class="exc-tick" opacity="1" transform="translate(0, 166.21428571428572)"><line x2="-6"></line><text x="-9" dy="0.32em">12.0</text></g><g class="exc-tick" opacity="1" transform="translate(0, 124.7857142857143)"><line x2="-6"></line><text x="-9" dy="0.32em">16.0</text></g><g class="exc-tick" opacity="1" transform="translate(0, 83.35714285714286)"><line x2="-6"></line><text x="-9" dy="0.32em">20.0</text></g><g class="exc-tick" opacity="1" transform="translate(0, 41.928571428571445)"><line x2="-6"></line><text x="-9" dy="0.32em">24.0</text></g><g class="exc-tick" opacity="1" transform="translate(0, 0.5)"><line x2="-6"></line><text x="-9" dy="0.32em">28.0</text></g></g><g><rect x="1.0" y="290.0" width="19.666666666666668" height="0.0" style="fill:#1f77b4;"><title >0</title></rect><text x="10.833333333333334" y="280.0" class="exc-barlabel-out" text-anchor="middle">0</text><rect x="22.666666666666668" y="290.0" width="19.666666666666668" height="0.0" style="fill:#1f77b4;"><title >0</title></rect><text x="32.5" y="280.0" class="exc-barlabel-out" text-anchor="middle">0</text><rect x="44.333333333333336" y="290.0" width="19.666666666666664" height="0.0" style="fill:#1f77b4;"><title >0</title></rect><text x="54.16666666666667" y="280.0" class="exc-barlabel-out" text-anchor="middle">0</text><rect x="66.0" y="290.0" width="19.66666666666667" height="0.0" style="fill:#1f77b4;"><title >0</title></rect><text x="75.83333333333334" y="280.0" class="exc-barlabel-out" text-anchor="middle">0</text><rect x="87.66666666666667" y="290.0" width="19.66666666666667" height="0.0" style="fill:#1f77b4;"><title >0</title></rect><text x="97.5" y="280.0" class="exc-barlabel-out" text-anchor="middle">0</text><rect x="109.33333333333334" y="290.0" width="19.666666666666657" height="0.0" style="fill:#1f77b4;"><title >0</title></rect><text x="119.16666666666667" y="280.0" class="exc-barlabel-out" text-anchor="middle">0</text><rect x="131.0" y="290.0" width="19.666666666666686" height="0.0" style="fill:#1f77b4;"><title >0</title></rect><text x="140.83333333333334" y="280.0" class="exc-barlabel-out" text-anchor="middle">0</text><rect x="152.66666666666669" y="290.0" width="19.666666666666657" height="0.0" style="fill:#1f77b4;"><title >0</title></rect><text x="162.5" y="280.0" class="exc-barlabel-out" text-anchor="middle">0</text><rect x="174.33333333333334" y="290.0" width="19.666666666666657" height="0.0" style="fill:#1f77b4;"><title >0</title></rect><text x="184.16666666666669" y="280.0" class="exc-barlabel-out" text-anchor="middle">0</text><rect x="196.0" y="290.0" width="19.666666666666686" height="0.0" style="fill:#1f77b4;"><title >0</title></rect><text x="205.83333333333334" y="280.0" class="exc-barlabel-out" text-anchor="middle">0</text><rect x="217.66666666666669" y="269.2857142857143" width="19.666666666666657" height="20.714285714285722" style="fill:#1f77b4;"><title >2</title></rect><text x="227.5" y="279.6428571428571" class="exc-barlabel-in" text-anchor="middle">2</text><rect x="239.33333333333334" y="269.2857142857143" width="19.666666666666657" height="20.714285714285722" style="fill:#1f77b4;"><title >2</title></rect><text x="249.16666666666669" y="279.6428571428571" class="exc-barlabel-in" text-anchor="middle">2</text><rect x="261.0" y="207.14285714285717" width="19.666666666666686" height="82.85714285714283" style="fill:#1f77b4;"><title >8</title></rect><text x="270.83333333333337" y="248.57142857142858" class="exc-barlabel-in" text-anchor="middle">8</text><rect x="282.6666666666667" y="227.85714285714286" width="19.666666666666686" height="62.14285714285714" style="fill:#1f77b4;"><title >6</title></rect><text x="292.5" y="258.92857142857144" class="exc-barlabel-in" text-anchor="middle">6</text><rect x="304.33333333333337" y="155.35714285714286" width="19.66666666666663" height="134.64285714285714" style="fill:#1f77b4;"><title >13</title></rect><text x="314.1666666666667" y="222.67857142857144" class="exc-barlabel-in" text-anchor="middle">13</text><rect x="326.0" y="176.07142857142856" width="19.666666666666686" height="113.92857142857144" style="fill:#1f77b4;"><title >11</title></rect><text x="335.83333333333337" y="233.03571428571428" class="exc-barlabel-in" text-anchor="middle">11</text><rect x="347.6666666666667" y="238.21428571428572" width="19.666666666666686" height="51.78571428571428" style="fill:#1f77b4;"><title >5</title></rect><text x="357.5" y="264.1071428571429" class="exc-barlabel-in" text-anchor="middle">5</text><rect x="369.33333333333337" y="258.92857142857144" width="19.66666666666663" height="31.071428571428555" style="fill:#1f77b4;"><title >3</title></rect><text x="379.1666666666667" y="274.4642857142857" class="exc-barlabel-in" text-anchor="middle">3</text><rect x="391.0" y="165.71428571428572" width="19.666666666666686" height="124.28571428571428" style="fill:#1f77b4;"><title >12</title></rect><text x="400.83333333333337" y="227.85714285714286" class="exc-barlabel-in" text-anchor="middle">12</text><rect x="412.6666666666667" y="10.357142857142833" width="19.666666666666686" height="279.64285714285717" style="fill:#1f77b4;"><title >27</title></rect><text x="422.5" y="150.17857142857142" class="exc-barlabel-in" text-anchor="middle">27</text><rect x="434.33333333333337" y="196.78571428571428" width="19.66666666666663" height="93.21428571428572" style="fill:#1f77b4;"><title >9</title></rect><text x="444.1666666666667" y="243.39285714285714" class="exc-barlabel-in" text-anchor="middle">9</text><rect x="456.0" y="207.14285714285717" width="19.666666666666686" height="82.85714285714283" style="fill:#1f77b4;"><title >8</title></rect><text x="465.83333333333337" y="248.57142857142858" class="exc-barlabel-in" text-anchor="middle">8</text><rect x="477.6666666666667" y="165.71428571428572" width="19.666666666666686" height="124.28571428571428" style="fill:#1f77b4;"><title >12</title></rect><text x="487.5" y="227.85714285714286" class="exc-barlabel-in" text-anchor="middle">12</text><rect x="499.33333333333337" y="290.0" width="19.66666666666663" height="0.0" style="fill:#1f77b4;"><title >0</title></rect><text x="509.1666666666667" y="280.0" class="exc-barlabel-out" text-anchor="middle">0</text></g></g></svg>